<mxfile host="app.diagrams.net" modified="2022-10-28T11:52:21.973Z" agent="5.0 (Macintosh; Intel Mac OS X 10_15_7) AppleWebKit/537.36 (KHTML, like Gecko) Chrome/106.0.0.0 Safari/537.36" etag="dS90RQ9sYRSbf8s3HSZ8" version="20.5.1" type="github">
  <diagram id="igIkLWl_I8CNIf3-y0DH" name="第 1 页">
    <mxGraphModel dx="1131" dy="587" grid="1" gridSize="10" guides="1" tooltips="1" connect="1" arrows="1" fold="1" page="1" pageScale="1" pageWidth="827" pageHeight="1169" math="0" shadow="0">
      <root>
        <mxCell id="0" />
        <mxCell id="1" parent="0" />
        <mxCell id="1S4eVNWtwclJiUYLLemy-1" value="EZR对接配置管理" style="rounded=0;whiteSpace=wrap;html=1;" parent="1" vertex="1">
          <mxGeometry x="490" y="90" width="120" height="30" as="geometry" />
        </mxCell>
        <mxCell id="1S4eVNWtwclJiUYLLemy-2" value="创&lt;br&gt;建&lt;br&gt;待&lt;br&gt;推&lt;br&gt;送&lt;br&gt;数&lt;br&gt;据" style="rounded=0;whiteSpace=wrap;html=1;" parent="1" vertex="1">
          <mxGeometry x="170" y="170" width="40" height="120" as="geometry" />
        </mxCell>
        <mxCell id="1S4eVNWtwclJiUYLLemy-3" value="推&lt;br&gt;送&lt;br&gt;数&lt;br&gt;据" style="rounded=0;whiteSpace=wrap;html=1;" parent="1" vertex="1">
          <mxGeometry x="870" y="170" width="40" height="120" as="geometry" />
        </mxCell>
        <mxCell id="1S4eVNWtwclJiUYLLemy-4" value="处&lt;br&gt;理&lt;br&gt;待&lt;br&gt;推&lt;br&gt;送&lt;br&gt;数&lt;br&gt;据" style="rounded=0;whiteSpace=wrap;html=1;" parent="1" vertex="1">
          <mxGeometry x="530" y="170" width="40" height="120" as="geometry" />
        </mxCell>
        <mxCell id="1S4eVNWtwclJiUYLLemy-12" value="标&lt;br&gt;签" style="rounded=0;whiteSpace=wrap;html=1;" parent="1" vertex="1">
          <mxGeometry x="80" y="340" width="40" height="120" as="geometry" />
        </mxCell>
        <mxCell id="1S4eVNWtwclJiUYLLemy-13" value="营&lt;br&gt;销&lt;br&gt;人&lt;br&gt;群" style="rounded=0;whiteSpace=wrap;html=1;" parent="1" vertex="1">
          <mxGeometry x="260" y="340" width="40" height="120" as="geometry" />
        </mxCell>
        <mxCell id="1S4eVNWtwclJiUYLLemy-15" value="a&lt;br&gt;z&lt;br&gt;k&lt;br&gt;a&lt;br&gt;b&lt;br&gt;a&lt;br&gt;n" style="rounded=0;whiteSpace=wrap;html=1;" parent="1" vertex="1">
          <mxGeometry x="625" y="340" width="40" height="120" as="geometry" />
        </mxCell>
        <mxCell id="1S4eVNWtwclJiUYLLemy-19" value="服&lt;br&gt;务&lt;br&gt;端" style="rounded=0;whiteSpace=wrap;html=1;" parent="1" vertex="1">
          <mxGeometry x="450" y="340" width="40" height="120" as="geometry" />
        </mxCell>
        <mxCell id="1S4eVNWtwclJiUYLLemy-20" value="服&lt;br&gt;务&lt;br&gt;端" style="rounded=0;whiteSpace=wrap;html=1;" parent="1" vertex="1">
          <mxGeometry x="820" y="340" width="40" height="120" as="geometry" />
        </mxCell>
        <mxCell id="1S4eVNWtwclJiUYLLemy-21" value="生&lt;br&gt;效&lt;br&gt;配&lt;br&gt;置" style="rounded=0;whiteSpace=wrap;html=1;" parent="1" vertex="1">
          <mxGeometry x="60" y="520" width="30" height="120" as="geometry" />
        </mxCell>
        <mxCell id="1S4eVNWtwclJiUYLLemy-28" value="推&lt;br&gt;送&lt;br&gt;明&lt;br&gt;细" style="rounded=0;whiteSpace=wrap;html=1;" parent="1" vertex="1">
          <mxGeometry x="110" y="520" width="30" height="120" as="geometry" />
        </mxCell>
        <mxCell id="1S4eVNWtwclJiUYLLemy-35" value="获&lt;br&gt;取&lt;br&gt;待&lt;br&gt;推&lt;br&gt;送&lt;br&gt;数&lt;br&gt;据" style="rounded=0;whiteSpace=wrap;html=1;" parent="1" vertex="1">
          <mxGeometry x="340" y="520" width="30" height="120" as="geometry" />
        </mxCell>
        <mxCell id="1S4eVNWtwclJiUYLLemy-36" value="处&lt;br&gt;理&lt;br&gt;待&lt;br&gt;推&lt;br&gt;送&lt;br&gt;数&lt;br&gt;据" style="rounded=0;whiteSpace=wrap;html=1;" parent="1" vertex="1">
          <mxGeometry x="390" y="520" width="30" height="120" as="geometry" />
        </mxCell>
        <mxCell id="1S4eVNWtwclJiUYLLemy-37" value="生&lt;br&gt;成&lt;br&gt;推&lt;br&gt;送&lt;br&gt;任&lt;br&gt;务" style="rounded=0;whiteSpace=wrap;html=1;" parent="1" vertex="1">
          <mxGeometry x="440" y="520" width="30" height="120" as="geometry" />
        </mxCell>
        <mxCell id="1S4eVNWtwclJiUYLLemy-38" value="提&lt;br&gt;交job任&lt;br&gt;务" style="rounded=0;whiteSpace=wrap;html=1;" parent="1" vertex="1">
          <mxGeometry x="490" y="520" width="30" height="120" as="geometry" />
        </mxCell>
        <mxCell id="1S4eVNWtwclJiUYLLemy-39" value="等&lt;br&gt;待&lt;br&gt;推&lt;br&gt;送" style="rounded=0;whiteSpace=wrap;html=1;" parent="1" vertex="1">
          <mxGeometry x="540" y="520" width="30" height="120" as="geometry" />
        </mxCell>
        <mxCell id="1S4eVNWtwclJiUYLLemy-41" value="获&lt;br&gt;取&lt;br&gt;待&lt;br&gt;执&lt;br&gt;行&lt;br&gt;任&lt;br&gt;务" style="rounded=0;whiteSpace=wrap;html=1;" parent="1" vertex="1">
          <mxGeometry x="580" y="520" width="30" height="120" as="geometry" />
        </mxCell>
        <mxCell id="1S4eVNWtwclJiUYLLemy-42" value="处&lt;br&gt;理&lt;br&gt;任&lt;br&gt;务" style="rounded=0;whiteSpace=wrap;html=1;" parent="1" vertex="1">
          <mxGeometry x="630" y="520" width="30" height="120" as="geometry" />
        </mxCell>
        <mxCell id="1S4eVNWtwclJiUYLLemy-43" value="返&lt;br&gt;回&lt;br&gt;任&lt;br&gt;务&lt;br&gt;结&lt;br&gt;果" style="rounded=0;whiteSpace=wrap;html=1;" parent="1" vertex="1">
          <mxGeometry x="680" y="520" width="30" height="120" as="geometry" />
        </mxCell>
        <mxCell id="1S4eVNWtwclJiUYLLemy-47" value="获&lt;br&gt;取&lt;br&gt;待&lt;br&gt;推&lt;br&gt;送&lt;br&gt;数&lt;br&gt;据" style="rounded=0;whiteSpace=wrap;html=1;" parent="1" vertex="1">
          <mxGeometry x="800" y="520" width="30" height="120" as="geometry" />
        </mxCell>
        <mxCell id="1S4eVNWtwclJiUYLLemy-48" value="推&lt;br&gt;送&lt;br&gt;数&lt;br&gt;据" style="rounded=0;whiteSpace=wrap;html=1;" parent="1" vertex="1">
          <mxGeometry x="850" y="520" width="30" height="120" as="geometry" />
        </mxCell>
        <mxCell id="1S4eVNWtwclJiUYLLemy-53" value="接&lt;br&gt;收&lt;br&gt;数&lt;br&gt;据" style="rounded=0;whiteSpace=wrap;html=1;" parent="1" vertex="1">
          <mxGeometry x="925" y="520" width="30" height="120" as="geometry" />
        </mxCell>
        <mxCell id="1S4eVNWtwclJiUYLLemy-54" value="" style="endArrow=none;html=1;rounded=0;fontFamily=Helvetica;fontSize=12;entryX=0.5;entryY=1;entryDx=0;entryDy=0;exitX=0.5;exitY=0;exitDx=0;exitDy=0;" parent="1" source="1S4eVNWtwclJiUYLLemy-13" target="1S4eVNWtwclJiUYLLemy-2" edge="1">
          <mxGeometry width="50" height="50" relative="1" as="geometry">
            <mxPoint x="490" y="410" as="sourcePoint" />
            <mxPoint x="540" y="360" as="targetPoint" />
            <Array as="points">
              <mxPoint x="280" y="310" />
              <mxPoint x="190" y="310" />
            </Array>
          </mxGeometry>
        </mxCell>
        <mxCell id="1S4eVNWtwclJiUYLLemy-55" value="" style="endArrow=none;html=1;rounded=0;fontFamily=Helvetica;fontSize=12;entryX=0.5;entryY=1;entryDx=0;entryDy=0;exitX=0.5;exitY=0;exitDx=0;exitDy=0;" parent="1" source="1S4eVNWtwclJiUYLLemy-12" target="1S4eVNWtwclJiUYLLemy-2" edge="1">
          <mxGeometry width="50" height="50" relative="1" as="geometry">
            <mxPoint x="280" y="350" as="sourcePoint" />
            <mxPoint x="200" y="300" as="targetPoint" />
            <Array as="points">
              <mxPoint x="100" y="310" />
              <mxPoint x="190" y="310" />
            </Array>
          </mxGeometry>
        </mxCell>
        <mxCell id="1S4eVNWtwclJiUYLLemy-56" value="" style="endArrow=none;html=1;rounded=0;fontFamily=Helvetica;fontSize=12;entryX=0.5;entryY=1;entryDx=0;entryDy=0;exitX=0.5;exitY=0;exitDx=0;exitDy=0;" parent="1" source="1S4eVNWtwclJiUYLLemy-19" target="1S4eVNWtwclJiUYLLemy-4" edge="1">
          <mxGeometry width="50" height="50" relative="1" as="geometry">
            <mxPoint x="290" y="360" as="sourcePoint" />
            <mxPoint x="210" y="310" as="targetPoint" />
            <Array as="points">
              <mxPoint x="470" y="310" />
              <mxPoint x="550" y="310" />
            </Array>
          </mxGeometry>
        </mxCell>
        <mxCell id="1S4eVNWtwclJiUYLLemy-57" value="" style="endArrow=none;html=1;rounded=0;fontFamily=Helvetica;fontSize=12;exitX=0.5;exitY=1;exitDx=0;exitDy=0;entryX=0.5;entryY=0;entryDx=0;entryDy=0;" parent="1" source="1S4eVNWtwclJiUYLLemy-4" target="1S4eVNWtwclJiUYLLemy-15" edge="1">
          <mxGeometry width="50" height="50" relative="1" as="geometry">
            <mxPoint x="300" y="370" as="sourcePoint" />
            <mxPoint x="190" y="290" as="targetPoint" />
            <Array as="points">
              <mxPoint x="550" y="310" />
              <mxPoint x="645" y="310" />
            </Array>
          </mxGeometry>
        </mxCell>
        <mxCell id="1S4eVNWtwclJiUYLLemy-58" value="" style="endArrow=none;html=1;rounded=0;fontFamily=Helvetica;fontSize=12;entryX=0.5;entryY=1;entryDx=0;entryDy=0;exitX=0.5;exitY=0;exitDx=0;exitDy=0;" parent="1" source="1S4eVNWtwclJiUYLLemy-20" target="1S4eVNWtwclJiUYLLemy-3" edge="1">
          <mxGeometry width="50" height="50" relative="1" as="geometry">
            <mxPoint x="310" y="380" as="sourcePoint" />
            <mxPoint x="230" y="330" as="targetPoint" />
            <Array as="points">
              <mxPoint x="840" y="310" />
              <mxPoint x="890" y="310" />
            </Array>
          </mxGeometry>
        </mxCell>
        <mxCell id="1S4eVNWtwclJiUYLLemy-68" value="" style="endArrow=none;html=1;rounded=0;fontFamily=Helvetica;fontSize=12;entryX=0.5;entryY=1;entryDx=0;entryDy=0;exitX=0.5;exitY=0;exitDx=0;exitDy=0;" parent="1" source="1S4eVNWtwclJiUYLLemy-35" edge="1">
          <mxGeometry width="50" height="50" relative="1" as="geometry">
            <mxPoint x="400" y="520" as="sourcePoint" />
            <mxPoint x="470" y="460" as="targetPoint" />
            <Array as="points">
              <mxPoint x="355" y="480" />
              <mxPoint x="470" y="480" />
            </Array>
          </mxGeometry>
        </mxCell>
        <mxCell id="1S4eVNWtwclJiUYLLemy-69" value="" style="endArrow=none;html=1;rounded=0;fontFamily=Helvetica;fontSize=12;entryX=0.5;entryY=1;entryDx=0;entryDy=0;edgeStyle=elbowEdgeStyle;elbow=vertical;exitX=0.5;exitY=0;exitDx=0;exitDy=0;" parent="1" source="1S4eVNWtwclJiUYLLemy-21" edge="1">
          <mxGeometry width="50" height="50" relative="1" as="geometry">
            <mxPoint x="50" y="520" as="sourcePoint" />
            <mxPoint x="100" y="460" as="targetPoint" />
            <Array as="points">
              <mxPoint x="60" y="480" />
            </Array>
          </mxGeometry>
        </mxCell>
        <mxCell id="1S4eVNWtwclJiUYLLemy-74" value="" style="endArrow=none;html=1;rounded=0;fontFamily=Helvetica;fontSize=12;edgeStyle=elbowEdgeStyle;elbow=vertical;entryX=0.5;entryY=1;entryDx=0;entryDy=0;exitX=0.5;exitY=0;exitDx=0;exitDy=0;" parent="1" target="1S4eVNWtwclJiUYLLemy-12" edge="1" source="1S4eVNWtwclJiUYLLemy-28">
          <mxGeometry width="50" height="50" relative="1" as="geometry">
            <mxPoint x="140" y="520" as="sourcePoint" />
            <mxPoint x="140" y="460" as="targetPoint" />
            <Array as="points">
              <mxPoint x="110" y="480" />
              <mxPoint x="160" y="480" />
            </Array>
          </mxGeometry>
        </mxCell>
        <mxCell id="1S4eVNWtwclJiUYLLemy-81" value="" style="endArrow=none;html=1;rounded=0;fontFamily=Helvetica;fontSize=12;edgeStyle=elbowEdgeStyle;elbow=vertical;entryX=0.5;entryY=1;entryDx=0;entryDy=0;exitX=0.5;exitY=0;exitDx=0;exitDy=0;" parent="1" target="1S4eVNWtwclJiUYLLemy-19" edge="1" source="1S4eVNWtwclJiUYLLemy-36">
          <mxGeometry width="50" height="50" relative="1" as="geometry">
            <mxPoint x="419.40999999999985" y="520" as="sourcePoint" />
            <mxPoint x="419.40999999999985" y="460" as="targetPoint" />
            <Array as="points">
              <mxPoint x="440" y="480" />
            </Array>
          </mxGeometry>
        </mxCell>
        <mxCell id="1S4eVNWtwclJiUYLLemy-82" value="" style="endArrow=none;html=1;rounded=0;fontFamily=Helvetica;fontSize=12;edgeStyle=elbowEdgeStyle;elbow=vertical;entryX=0.5;entryY=1;entryDx=0;entryDy=0;" parent="1" target="1S4eVNWtwclJiUYLLemy-19" edge="1">
          <mxGeometry width="50" height="50" relative="1" as="geometry">
            <mxPoint x="449.40999999999985" y="520" as="sourcePoint" />
            <mxPoint x="449.40999999999985" y="460" as="targetPoint" />
            <Array as="points">
              <mxPoint x="460" y="480" />
            </Array>
          </mxGeometry>
        </mxCell>
        <mxCell id="1S4eVNWtwclJiUYLLemy-83" value="" style="endArrow=none;html=1;rounded=0;fontFamily=Helvetica;fontSize=12;edgeStyle=elbowEdgeStyle;elbow=vertical;exitX=0.5;exitY=0;exitDx=0;exitDy=0;" parent="1" edge="1" source="1S4eVNWtwclJiUYLLemy-39">
          <mxGeometry width="50" height="50" relative="1" as="geometry">
            <mxPoint x="479.40999999999985" y="520" as="sourcePoint" />
            <mxPoint x="470" y="460" as="targetPoint" />
            <Array as="points">
              <mxPoint x="480" y="480" />
            </Array>
          </mxGeometry>
        </mxCell>
        <mxCell id="1S4eVNWtwclJiUYLLemy-84" value="" style="endArrow=none;html=1;rounded=0;fontFamily=Helvetica;fontSize=12;edgeStyle=elbowEdgeStyle;elbow=vertical;" parent="1" edge="1">
          <mxGeometry width="50" height="50" relative="1" as="geometry">
            <mxPoint x="509.40999999999985" y="520" as="sourcePoint" />
            <mxPoint x="470" y="460" as="targetPoint" />
            <Array as="points">
              <mxPoint x="490" y="480" />
            </Array>
          </mxGeometry>
        </mxCell>
        <mxCell id="1S4eVNWtwclJiUYLLemy-87" value="" style="endArrow=none;html=1;rounded=0;fontFamily=Helvetica;fontSize=12;edgeStyle=elbowEdgeStyle;elbow=vertical;entryX=0.5;entryY=1;entryDx=0;entryDy=0;" parent="1" target="1S4eVNWtwclJiUYLLemy-15" edge="1">
          <mxGeometry width="50" height="50" relative="1" as="geometry">
            <mxPoint x="599.4099999999999" y="520" as="sourcePoint" />
            <mxPoint x="599.4099999999999" y="460" as="targetPoint" />
            <Array as="points">
              <mxPoint x="620" y="480" />
            </Array>
          </mxGeometry>
        </mxCell>
        <mxCell id="1S4eVNWtwclJiUYLLemy-88" value="" style="endArrow=none;html=1;rounded=0;fontFamily=Helvetica;fontSize=12;edgeStyle=elbowEdgeStyle;elbow=vertical;entryX=0.5;entryY=1;entryDx=0;entryDy=0;exitX=0.5;exitY=0;exitDx=0;exitDy=0;" parent="1" target="1S4eVNWtwclJiUYLLemy-15" edge="1" source="1S4eVNWtwclJiUYLLemy-43">
          <mxGeometry width="50" height="50" relative="1" as="geometry">
            <mxPoint x="629.4099999999999" y="520" as="sourcePoint" />
            <mxPoint x="629.4099999999999" y="460" as="targetPoint" />
            <Array as="points">
              <mxPoint x="630" y="480" />
            </Array>
          </mxGeometry>
        </mxCell>
        <mxCell id="1S4eVNWtwclJiUYLLemy-89" value="" style="endArrow=none;html=1;rounded=0;fontFamily=Helvetica;fontSize=12;edgeStyle=elbowEdgeStyle;elbow=vertical;entryX=0.5;entryY=1;entryDx=0;entryDy=0;exitX=0.5;exitY=0;exitDx=0;exitDy=0;" parent="1" target="1S4eVNWtwclJiUYLLemy-15" edge="1" source="1S4eVNWtwclJiUYLLemy-42">
          <mxGeometry width="50" height="50" relative="1" as="geometry">
            <mxPoint x="659.9999999999999" y="520" as="sourcePoint" />
            <mxPoint x="659.9999999999999" y="460" as="targetPoint" />
            <Array as="points">
              <mxPoint x="650" y="480" />
            </Array>
          </mxGeometry>
        </mxCell>
        <mxCell id="1S4eVNWtwclJiUYLLemy-94" value="" style="endArrow=none;html=1;rounded=0;fontFamily=Helvetica;fontSize=12;edgeStyle=elbowEdgeStyle;elbow=vertical;entryX=0.5;entryY=1;entryDx=0;entryDy=0;" parent="1" target="1S4eVNWtwclJiUYLLemy-20" edge="1">
          <mxGeometry width="50" height="50" relative="1" as="geometry">
            <mxPoint x="819.4099999999999" y="520" as="sourcePoint" />
            <mxPoint x="819.4099999999999" y="460" as="targetPoint" />
            <Array as="points">
              <mxPoint x="830" y="480" />
            </Array>
          </mxGeometry>
        </mxCell>
        <mxCell id="1S4eVNWtwclJiUYLLemy-95" value="" style="endArrow=none;html=1;rounded=0;fontFamily=Helvetica;fontSize=12;edgeStyle=elbowEdgeStyle;elbow=vertical;entryX=0.5;entryY=1;entryDx=0;entryDy=0;exitX=0.5;exitY=0;exitDx=0;exitDy=0;" parent="1" target="1S4eVNWtwclJiUYLLemy-20" edge="1" source="1S4eVNWtwclJiUYLLemy-48">
          <mxGeometry width="50" height="50" relative="1" as="geometry">
            <mxPoint x="849.4099999999999" y="520" as="sourcePoint" />
            <mxPoint x="849.4099999999999" y="460" as="targetPoint" />
            <Array as="points">
              <mxPoint x="840" y="480" />
            </Array>
          </mxGeometry>
        </mxCell>
        <mxCell id="DfebonZHGduRshNx3Be4-1" value="CDP&lt;br&gt;人&lt;br&gt;群" style="rounded=0;whiteSpace=wrap;html=1;" vertex="1" parent="1">
          <mxGeometry x="170" y="340" width="40" height="120" as="geometry" />
        </mxCell>
        <mxCell id="DfebonZHGduRshNx3Be4-3" value="生&lt;br&gt;效&lt;br&gt;配&lt;br&gt;置" style="rounded=0;whiteSpace=wrap;html=1;" vertex="1" parent="1">
          <mxGeometry x="150" y="520" width="30" height="120" as="geometry" />
        </mxCell>
        <mxCell id="DfebonZHGduRshNx3Be4-4" value="推&lt;br&gt;送&lt;br&gt;明&lt;br&gt;细" style="rounded=0;whiteSpace=wrap;html=1;" vertex="1" parent="1">
          <mxGeometry x="200" y="520" width="30" height="120" as="geometry" />
        </mxCell>
        <mxCell id="DfebonZHGduRshNx3Be4-5" value="" style="endArrow=none;html=1;rounded=0;fontFamily=Helvetica;fontSize=12;edgeStyle=elbowEdgeStyle;elbow=vertical;exitX=0.5;exitY=0;exitDx=0;exitDy=0;" edge="1" parent="1" source="DfebonZHGduRshNx3Be4-8">
          <mxGeometry width="50" height="50" relative="1" as="geometry">
            <mxPoint x="260" y="520" as="sourcePoint" />
            <mxPoint x="280" y="460" as="targetPoint" />
            <Array as="points">
              <mxPoint x="355" y="480" />
            </Array>
          </mxGeometry>
        </mxCell>
        <mxCell id="DfebonZHGduRshNx3Be4-6" value="" style="endArrow=none;html=1;rounded=0;fontFamily=Helvetica;fontSize=12;edgeStyle=elbowEdgeStyle;elbow=vertical;exitX=0.5;exitY=0;exitDx=0;exitDy=0;" edge="1" parent="1" source="DfebonZHGduRshNx3Be4-3">
          <mxGeometry width="50" height="50" relative="1" as="geometry">
            <mxPoint x="170" y="520" as="sourcePoint" />
            <mxPoint x="190" y="460" as="targetPoint" />
            <Array as="points">
              <mxPoint x="60" y="480" />
            </Array>
          </mxGeometry>
        </mxCell>
        <mxCell id="DfebonZHGduRshNx3Be4-7" value="" style="endArrow=none;html=1;rounded=0;fontFamily=Helvetica;fontSize=12;edgeStyle=elbowEdgeStyle;elbow=vertical;entryX=0.5;entryY=1;entryDx=0;entryDy=0;exitX=0.5;exitY=0;exitDx=0;exitDy=0;" edge="1" parent="1">
          <mxGeometry width="50" height="50" relative="1" as="geometry">
            <mxPoint x="215" y="520" as="sourcePoint" />
            <mxPoint x="190" y="460" as="targetPoint" />
            <Array as="points">
              <mxPoint x="200" y="480" />
              <mxPoint x="250" y="480" />
            </Array>
          </mxGeometry>
        </mxCell>
        <mxCell id="DfebonZHGduRshNx3Be4-8" value="营&lt;br&gt;销&lt;br&gt;文&lt;br&gt;件&lt;br&gt;推&lt;br&gt;送" style="rounded=0;whiteSpace=wrap;html=1;" vertex="1" parent="1">
          <mxGeometry x="240" y="520" width="30" height="120" as="geometry" />
        </mxCell>
        <mxCell id="DfebonZHGduRshNx3Be4-9" value="推&lt;br&gt;送&lt;br&gt;明&lt;br&gt;细" style="rounded=0;whiteSpace=wrap;html=1;" vertex="1" parent="1">
          <mxGeometry x="290" y="520" width="30" height="120" as="geometry" />
        </mxCell>
        <mxCell id="DfebonZHGduRshNx3Be4-11" value="" style="endArrow=none;html=1;rounded=0;fontFamily=Helvetica;fontSize=12;edgeStyle=elbowEdgeStyle;elbow=vertical;entryX=0.5;entryY=1;entryDx=0;entryDy=0;exitX=0.5;exitY=0;exitDx=0;exitDy=0;" edge="1" parent="1">
          <mxGeometry width="50" height="50" relative="1" as="geometry">
            <mxPoint x="305" y="520" as="sourcePoint" />
            <mxPoint x="280" y="460" as="targetPoint" />
            <Array as="points">
              <mxPoint x="290" y="480" />
              <mxPoint x="340" y="480" />
            </Array>
          </mxGeometry>
        </mxCell>
        <mxCell id="DfebonZHGduRshNx3Be4-12" value="" style="endArrow=none;html=1;rounded=0;fontFamily=Helvetica;fontSize=12;exitX=0.5;exitY=0;exitDx=0;exitDy=0;" edge="1" parent="1">
          <mxGeometry width="50" height="50" relative="1" as="geometry">
            <mxPoint x="190" y="170" as="sourcePoint" />
            <mxPoint x="550" y="120" as="targetPoint" />
            <Array as="points">
              <mxPoint x="190" y="140" />
              <mxPoint x="550" y="140" />
            </Array>
          </mxGeometry>
        </mxCell>
        <mxCell id="DfebonZHGduRshNx3Be4-13" value="" style="endArrow=none;html=1;rounded=0;fontFamily=Helvetica;fontSize=12;exitX=0.5;exitY=0;exitDx=0;exitDy=0;" edge="1" parent="1">
          <mxGeometry width="50" height="50" relative="1" as="geometry">
            <mxPoint x="890" y="170" as="sourcePoint" />
            <mxPoint x="550" y="120" as="targetPoint" />
            <Array as="points">
              <mxPoint x="890" y="140" />
              <mxPoint x="550" y="140" />
            </Array>
          </mxGeometry>
        </mxCell>
        <mxCell id="DfebonZHGduRshNx3Be4-14" value="" style="endArrow=none;html=1;rounded=0;fontFamily=Helvetica;fontSize=12;entryX=0.5;entryY=1;entryDx=0;entryDy=0;exitX=0.5;exitY=0;exitDx=0;exitDy=0;" edge="1" parent="1">
          <mxGeometry width="50" height="50" relative="1" as="geometry">
            <mxPoint x="550" y="170" as="sourcePoint" />
            <mxPoint x="550" y="120" as="targetPoint" />
            <Array as="points">
              <mxPoint x="550" y="140" />
            </Array>
          </mxGeometry>
        </mxCell>
        <mxCell id="DfebonZHGduRshNx3Be4-15" value="" style="endArrow=none;html=1;rounded=0;fontFamily=Helvetica;fontSize=12;entryX=0.5;entryY=1;entryDx=0;entryDy=0;exitX=0.5;exitY=0;exitDx=0;exitDy=0;" edge="1" parent="1">
          <mxGeometry width="50" height="50" relative="1" as="geometry">
            <mxPoint x="189.5" y="340" as="sourcePoint" />
            <mxPoint x="189.5" y="290" as="targetPoint" />
            <Array as="points">
              <mxPoint x="189.5" y="310" />
            </Array>
          </mxGeometry>
        </mxCell>
        <mxCell id="DfebonZHGduRshNx3Be4-16" value="EZR&lt;br&gt;系&lt;br&gt;统" style="rounded=0;whiteSpace=wrap;html=1;" vertex="1" parent="1">
          <mxGeometry x="920" y="340" width="40" height="120" as="geometry" />
        </mxCell>
        <mxCell id="DfebonZHGduRshNx3Be4-18" value="" style="endArrow=none;html=1;rounded=0;fontFamily=Helvetica;fontSize=12;edgeStyle=elbowEdgeStyle;elbow=vertical;entryX=0.5;entryY=1;entryDx=0;entryDy=0;" edge="1" parent="1" target="DfebonZHGduRshNx3Be4-16">
          <mxGeometry width="50" height="50" relative="1" as="geometry">
            <mxPoint x="939.4099999999999" y="520" as="sourcePoint" />
            <mxPoint x="960" y="460" as="targetPoint" />
            <Array as="points">
              <mxPoint x="950" y="480" />
            </Array>
          </mxGeometry>
        </mxCell>
        <mxCell id="DfebonZHGduRshNx3Be4-20" value="" style="endArrow=none;html=1;rounded=0;fontFamily=Helvetica;fontSize=12;entryX=0.5;entryY=1;entryDx=0;entryDy=0;exitX=0.5;exitY=0;exitDx=0;exitDy=0;" edge="1" parent="1" source="DfebonZHGduRshNx3Be4-16" target="1S4eVNWtwclJiUYLLemy-3">
          <mxGeometry width="50" height="50" relative="1" as="geometry">
            <mxPoint x="850" y="350" as="sourcePoint" />
            <mxPoint x="900" y="300" as="targetPoint" />
            <Array as="points">
              <mxPoint x="940" y="310" />
              <mxPoint x="890" y="310" />
            </Array>
          </mxGeometry>
        </mxCell>
      </root>
    </mxGraphModel>
  </diagram>
</mxfile>
